<svg xmlns="http://www.w3.org/2000/svg" xmlns:xlink="http://www.w3.org/1999/xlink" contentStyleType="text/css" data-diagram-type="CLASS" height="250px" preserveAspectRatio="none" style="width:702px;height:250px;background:#FFFFFF;" version="1.1" viewBox="0 0 702 250" width="702px" zoomAndPan="magnify"><defs/><g><!--class MaintenanceRecord--><g class="entity" data-entity="MaintenanceRecord" data-source-line="4" data-uid="ent0002" id="entity_MaintenanceRecord"><rect fill="#F1F1F1" height="78.5313" rx="2.5" ry="2.5" style="stroke:#181818;stroke-width:0.5;" width="208.1777" x="302" y="7"/><ellipse cx="333.5476" cy="34.1172" fill="#ADD1B2" rx="11" ry="11" style="stroke:#181818;stroke-width:1;"/><path d="M336.5164,39.7578 Q335.9382,40.0547 335.2976,40.1953 Q334.657,40.3516 333.9539,40.3516 Q331.4539,40.3516 330.1257,38.7109 Q328.8132,37.0547 328.8132,33.9297 Q328.8132,30.8047 330.1257,29.1484 Q331.4539,27.4922 333.9539,27.4922 Q334.657,27.4922 335.2976,27.6484 Q335.9539,27.8047 336.5164,28.1016 L336.5164,30.8203 Q335.8914,30.2422 335.2976,29.9766 Q334.7039,29.6953 334.0789,29.6953 Q332.7351,29.6953 332.0476,30.7734 Q331.3601,31.8359 331.3601,33.9297 Q331.3601,36.0234 332.0476,37.1016 Q332.7351,38.1641 334.0789,38.1641 Q334.7039,38.1641 335.2976,37.8984 Q335.8914,37.6172 336.5164,37.0391 L336.5164,39.7578 Z " fill="#000000"/><text fill="#000000" font-family="sans-serif" font-size="12" font-style="italic" lengthAdjust="spacing" textLength="49.8457" x="396.0046" y="23.1387">&#171;Entity&#187;</text><text fill="#000000" font-family="sans-serif" font-size="12" font-style="italic" lengthAdjust="spacing" textLength="42.5391" x="399.658" y="37.1074">&#171;Root&#187;</text><text fill="#000000" font-family="sans-serif" font-size="14" lengthAdjust="spacing" textLength="139.4053" x="351.2249" y="52.9326">MaintenanceRecord</text><line style="stroke:#181818;stroke-width:0.5;" x1="303" x2="509.1777" y1="61.2344" y2="61.2344"/><text fill="#000000" font-family="sans-serif" font-size="14" lengthAdjust="spacing" textLength="196.1777" x="308" y="78.2295">-aircraftRegistration : String</text></g><!--class RecordDetails--><g class="entity" data-entity="RecordDetails" data-source-line="8" data-uid="ent0003" id="entity_RecordDetails"><rect fill="#F1F1F1" height="97.1563" rx="2.5" ry="2.5" style="stroke:#181818;stroke-width:0.5;" width="262.0313" x="7" y="146"/><ellipse cx="84.875" cy="166.1328" fill="#ADD1B2" rx="11" ry="11" style="stroke:#181818;stroke-width:1;"/><path d="M87.8438,171.7734 Q87.2656,172.0703 86.625,172.2109 Q85.9844,172.3672 85.2813,172.3672 Q82.7813,172.3672 81.4531,170.7266 Q80.1406,169.0703 80.1406,165.9453 Q80.1406,162.8203 81.4531,161.1641 Q82.7813,159.5078 85.2813,159.5078 Q85.9844,159.5078 86.625,159.6641 Q87.2813,159.8203 87.8438,160.1172 L87.8438,162.8359 Q87.2188,162.2578 86.625,161.9922 Q86.0313,161.7109 85.4063,161.7109 Q84.0625,161.7109 83.375,162.7891 Q82.6875,163.8516 82.6875,165.9453 Q82.6875,168.0391 83.375,169.1172 Q84.0625,170.1797 85.4063,170.1797 Q86.0313,170.1797 86.625,169.9141 Q87.2188,169.6328 87.8438,169.0547 L87.8438,171.7734 Z " fill="#000000"/><text fill="#000000" font-family="sans-serif" font-size="12" font-style="italic" lengthAdjust="spacing" textLength="91.5938" x="108.4688" y="162.1387">&#171;Value Object&#187;</text><text fill="#000000" font-family="sans-serif" font-size="14" lengthAdjust="spacing" textLength="97.7813" x="105.375" y="177.9639">RecordDetails</text><line style="stroke:#181818;stroke-width:0.5;" x1="8" x2="268.0313" y1="186.2656" y2="186.2656"/><text fill="#000000" font-family="sans-serif" font-size="14" lengthAdjust="spacing" textLength="138.291" x="13" y="203.2607">-description : String</text><text fill="#000000" font-family="sans-serif" font-size="14" lengthAdjust="spacing" textLength="154.7314" x="13" y="219.5576">-startDate : LocalDate</text><text fill="#000000" font-family="sans-serif" font-size="14" lengthAdjust="spacing" textLength="250.0313" x="13" y="235.8545">-expectedDurationMinutes : Integer</text></g><!--class MaintenanceComponent--><g class="entity" data-entity="MaintenanceComponent" data-source-line="14" data-uid="ent0004" id="entity_MaintenanceComponent"><rect fill="#F1F1F1" height="64.5625" rx="2.5" ry="2.5" style="stroke:#181818;stroke-width:0.5;" width="203.4385" x="304.5" y="162"/><ellipse cx="319.5" cy="182.1328" fill="#ADD1B2" rx="11" ry="11" style="stroke:#181818;stroke-width:1;"/><path d="M322.4688,187.7734 Q321.8906,188.0703 321.25,188.2109 Q320.6094,188.3672 319.9063,188.3672 Q317.4063,188.3672 316.0781,186.7266 Q314.7656,185.0703 314.7656,181.9453 Q314.7656,178.8203 316.0781,177.1641 Q317.4063,175.5078 319.9063,175.5078 Q320.6094,175.5078 321.25,175.6641 Q321.9063,175.8203 322.4688,176.1172 L322.4688,178.8359 Q321.8438,178.2578 321.25,177.9922 Q320.6563,177.7109 320.0313,177.7109 Q318.6875,177.7109 318,178.7891 Q317.3125,179.8516 317.3125,181.9453 Q317.3125,184.0391 318,185.1172 Q318.6875,186.1797 320.0313,186.1797 Q320.6563,186.1797 321.25,185.9141 Q321.8438,185.6328 322.4688,185.0547 L322.4688,187.7734 Z " fill="#000000"/><text fill="#000000" font-family="sans-serif" font-size="12" font-style="italic" lengthAdjust="spacing" textLength="91.5938" x="373.4224" y="178.1387">&#171;Value Object&#187;</text><text fill="#000000" font-family="sans-serif" font-size="14" lengthAdjust="spacing" textLength="171.4385" x="333.5" y="193.9639">MaintenanceComponent</text><line style="stroke:#181818;stroke-width:0.5;" x1="305.5" x2="506.9385" y1="202.2656" y2="202.2656"/><text fill="#000000" font-family="sans-serif" font-size="14" lengthAdjust="spacing" textLength="122.3223" x="310.5" y="219.2607">-category : String</text></g><!--class CompletionNotes--><g class="entity" data-entity="CompletionNotes" data-source-line="18" data-uid="ent0005" id="entity_CompletionNotes"><rect fill="#F1F1F1" height="64.5625" rx="2.5" ry="2.5" style="stroke:#181818;stroke-width:0.5;" width="152.6201" x="542.5" y="162"/><ellipse cx="557.5" cy="182.1328" fill="#ADD1B2" rx="11" ry="11" style="stroke:#181818;stroke-width:1;"/><path d="M560.4688,187.7734 Q559.8906,188.0703 559.25,188.2109 Q558.6094,188.3672 557.9063,188.3672 Q555.4063,188.3672 554.0781,186.7266 Q552.7656,185.0703 552.7656,181.9453 Q552.7656,178.8203 554.0781,177.1641 Q555.4063,175.5078 557.9063,175.5078 Q558.6094,175.5078 559.25,175.6641 Q559.9063,175.8203 560.4688,176.1172 L560.4688,178.8359 Q559.8438,178.2578 559.25,177.9922 Q558.6563,177.7109 558.0313,177.7109 Q556.6875,177.7109 556,178.7891 Q555.3125,179.8516 555.3125,181.9453 Q555.3125,184.0391 556,185.1172 Q556.6875,186.1797 558.0313,186.1797 Q558.6563,186.1797 559.25,185.9141 Q559.8438,185.6328 560.4688,185.0547 L560.4688,187.7734 Z " fill="#000000"/><text fill="#000000" font-family="sans-serif" font-size="12" font-style="italic" lengthAdjust="spacing" textLength="91.5938" x="586.0132" y="178.1387">&#171;Value Object&#187;</text><text fill="#000000" font-family="sans-serif" font-size="14" lengthAdjust="spacing" textLength="120.6201" x="571.5" y="193.9639">CompletionNotes</text><line style="stroke:#181818;stroke-width:0.5;" x1="543.5" x2="694.1201" y1="202.2656" y2="202.2656"/><text fill="#000000" font-family="sans-serif" font-size="14" lengthAdjust="spacing" textLength="99.2852" x="548.5" y="219.2607">-notes : String</text></g><!--reverse link MaintenanceRecord to RecordDetails--><g class="link" data-entity-1="MaintenanceRecord" data-entity-2="RecordDetails" data-source-line="22" data-uid="lnk6" id="link_MaintenanceRecord_RecordDetails"><path codeLine="22" d="M324.7013,91.789 C291.0413,110.119 261.03,126.48 225.46,145.85" fill="none" id="MaintenanceRecord-backto-RecordDetails" style="stroke:#181818;stroke-width:1;"/><polygon fill="#181818" points="335.24,86.05,328.0577,85.4066,324.7013,91.789,331.8836,92.4324,335.24,86.05" style="stroke:#181818;stroke-width:1;"/></g><!--reverse link MaintenanceRecord to MaintenanceComponent--><g class="link" data-entity-1="MaintenanceRecord" data-entity-2="MaintenanceComponent" data-source-line="23" data-uid="lnk7" id="link_MaintenanceRecord_MaintenanceComponent"><path codeLine="23" d="M406,98.24 C406,121.9 406,139.76 406,161.96" fill="none" id="MaintenanceRecord-backto-MaintenanceComponent" style="stroke:#181818;stroke-width:1;"/><polygon fill="#181818" points="406,86.24,402,92.24,406,98.24,410,92.24,406,86.24" style="stroke:#181818;stroke-width:1;"/></g><!--reverse link MaintenanceRecord to CompletionNotes--><g class="link" data-entity-1="MaintenanceRecord" data-entity-2="CompletionNotes" data-source-line="24" data-uid="lnk8" id="link_MaintenanceRecord_CompletionNotes"><path codeLine="24" d="M472.1373,92.8356 C506.6473,116.4956 540.4,139.62 572.87,161.88" fill="none" id="MaintenanceRecord-backto-CompletionNotes" style="stroke:#181818;stroke-width:1;"/><polygon fill="#181818" points="462.24,86.05,464.9268,92.7419,472.1373,92.8356,469.4505,86.1437,462.24,86.05" style="stroke:#181818;stroke-width:1;"/></g><!--SRC=[TP11IyH038Nl_HKv2mNFiYo8zR3WAdHXx-aqrcYRb9aKx8h_tTGgkwlREGNovdll9Rsnz1YnWz1YIhTcaQl1Q1DKTdmWkCvUk2QWhhSHEkegYYdBliMmHHOZGGbKKj1OmsfrByOshjS-bghcmqS6_d90ZY7YivNKSBA8nYfm0pjtb2Rx_8NEf88CkKrEsMCx43nLhnHEQJMb4Ba_XyohP1YjG2DVF6Z0Tff_TlJUEuVgOfW3R5cyRNBbngiq58z1JjhTQTUhaDXodk0UZSRnGgFfTqkJswDENeiCqJdA4V3_mbTvVdwY1Ssbz0lIF_c-0000]--></g></svg>