<svg xmlns="http://www.w3.org/2000/svg" xmlns:xlink="http://www.w3.org/1999/xlink" contentStyleType="text/css" data-diagram-type="SEQUENCE" height="240px" preserveAspectRatio="none" style="width:571px;height:240px;background:#FFFFFF;" version="1.1" viewBox="0 0 571 240" width="571px" zoomAndPan="magnify"><defs/><g><g><title>Maintenance Technician</title><rect fill="#FFFFFF" height="50.2656" style="stroke:#181818;stroke-width:1;" width="10" x="88.0732" y="91.2969"/></g><g><title>System</title><rect fill="#FFFFFF" height="29.1328" style="stroke:#181818;stroke-width:1;" width="10" x="527.6089" y="112.4297"/></g><g><title>Maintenance Technician</title><rect fill="#000000" fill-opacity="0.00000" height="78.2656" width="8" x="89.0732" y="81.2969"/><line style="stroke:#181818;stroke-width:0.5;stroke-dasharray:5,5;" x1="93" x2="93" y1="81.2969" y2="159.5625"/></g><g><title>System</title><rect fill="#000000" fill-opacity="0.00000" height="78.2656" width="8" x="528.6089" y="81.2969"/><line style="stroke:#181818;stroke-width:0.5;stroke-dasharray:5,5;" x1="532.5059" x2="532.5059" y1="81.2969" y2="159.5625"/></g><g class="participant participant-head" data-participant="User"><text fill="#000000" font-family="sans-serif" font-size="14" lengthAdjust="spacing" textLength="170.1465" x="5" y="77.9951">Maintenance Technician</text><ellipse cx="93.0732" cy="13.5" fill="#E2E2F0" rx="8" ry="8" style="stroke:#181818;stroke-width:0.5;"/><path d="M93.0732,21.5 L93.0732,48.5 M80.0732,29.5 L106.0732,29.5 M93.0732,48.5 L80.0732,63.5 M93.0732,48.5 L106.0732,63.5" fill="none" style="stroke:#181818;stroke-width:0.5;"/></g><g class="participant participant-tail" data-participant="User"><text fill="#000000" font-family="sans-serif" font-size="14" lengthAdjust="spacing" textLength="170.1465" x="5" y="171.5576">Maintenance Technician</text><ellipse cx="93.0732" cy="183.3594" fill="#E2E2F0" rx="8" ry="8" style="stroke:#181818;stroke-width:0.5;"/><path d="M93.0732,191.3594 L93.0732,218.3594 M80.0732,199.3594 L106.0732,199.3594 M93.0732,218.3594 L80.0732,233.3594 M93.0732,218.3594 L106.0732,233.3594" fill="none" style="stroke:#181818;stroke-width:0.5;"/></g><g class="participant participant-head" data-participant="SYS"><rect fill="#E2E2F0" height="30.2969" rx="2.5" ry="2.5" style="stroke:#181818;stroke-width:0.5;" width="66.2061" x="499.5059" y="50"/><text fill="#000000" font-family="sans-serif" font-size="14" lengthAdjust="spacing" textLength="52.2061" x="506.5059" y="69.9951">System</text></g><g class="participant participant-tail" data-participant="SYS"><rect fill="#E2E2F0" height="30.2969" rx="2.5" ry="2.5" style="stroke:#181818;stroke-width:0.5;" width="66.2061" x="499.5059" y="158.5625"/><text fill="#000000" font-family="sans-serif" font-size="14" lengthAdjust="spacing" textLength="52.2061" x="506.5059" y="178.5576">System</text></g><g><title>Maintenance Technician</title><rect fill="#FFFFFF" height="50.2656" style="stroke:#181818;stroke-width:1;" width="10" x="88.0732" y="91.2969"/></g><g><title>System</title><rect fill="#FFFFFF" height="29.1328" style="stroke:#181818;stroke-width:1;" width="10" x="527.6089" y="112.4297"/></g><g class="message" data-participant-1="User" data-participant-2="SYS"><polygon fill="#181818" points="515.6089,108.4297,525.6089,112.4297,515.6089,116.4297,519.6089,112.4297" style="stroke:#181818;stroke-width:1;"/><line style="stroke:#181818;stroke-width:1;" x1="98.0732" x2="521.6089" y1="112.4297" y2="112.4297"/><text fill="#000000" font-family="sans-serif" font-size="13" font-weight="bold" lengthAdjust="spacing" textLength="9.0454" x="105.0732" y="107.3638">1</text><text fill="#000000" font-family="sans-serif" font-size="13" lengthAdjust="spacing" textLength="397.4902" x="118.1187" y="107.3638">GET /api/maintenance-records/aircraft/{registrationNumber}</text></g><g class="message" data-participant-1="SYS" data-participant-2="User"><polygon fill="#181818" points="104.0732,137.5625,94.0732,141.5625,104.0732,145.5625,100.0732,141.5625" style="stroke:#181818;stroke-width:1;"/><line style="stroke:#181818;stroke-width:1;stroke-dasharray:2,2;" x1="98.0732" x2="531.6089" y1="141.5625" y2="141.5625"/><text fill="#000000" font-family="sans-serif" font-size="13" font-weight="bold" lengthAdjust="spacing" textLength="9.0454" x="110.0732" y="136.4966">2</text><text fill="#000000" font-family="sans-serif" font-size="13" lengthAdjust="spacing" textLength="245.8511" x="123.1187" y="136.4966">200 OK (List of Maintenance Records)</text></g><!--SRC=[LO-z3i8m38JtFeNL2OOg5MC7DiJ0dqJBm6XI0ncQL8wBX13lJf8EBOib-yxVsJY8iqDt8yvGYsF83sYia4Mh2HhIJskqGPi3UhZuOEkH9Onwj09v_VP2NHBhQvr5XdcXq6YD1OfrbA22xQO1XRrHtPHGC6d7hLTeM3FUHNsO7iOBenXdZ-coxuHD8H5N16p2Lx0gIpZjOB4FQ-3kC7_WFEANMKj_Z5aRAJy0]--></g></svg>