<?plantuml 1.2026.2?><svg xmlns="http://www.w3.org/2000/svg" xmlns:xlink="http://www.w3.org/1999/xlink" contentStyleType="text/css" data-diagram-type="CLASS" height="296px" preserveAspectRatio="none" style="width:1112px;height:296px;background:#FFFFFF;" version="1.1" viewBox="0 0 1112 296" width="1112px" zoomAndPan="magnify"><defs/><g><!--class Aircraft--><g class="entity" data-qualified-name="Aircraft" data-source-line="3" id="ent0002"><rect fill="#F1F1F1" height="94.8281" rx="2.5" ry="2.5" style="stroke:#181818;stroke-width:0.5;" width="241.6875" x="7" y="195"/><ellipse cx="97.7573" cy="222.1172" fill="#ADD1B2" rx="11" ry="11" style="stroke:#181818;stroke-width:1;"/><path d="M101.8667,228.1172 L94.1479,228.1172 L94.1479,215.7266 L101.8667,215.7266 L101.8667,217.8828 L96.6011,217.8828 L96.6011,220.5547 L101.3667,220.5547 L101.3667,222.7109 L96.6011,222.7109 L96.6011,225.9609 L101.8667,225.9609 L101.8667,228.1172 Z " fill="#000000"/><text fill="#000000" font-family="sans-serif" font-size="12" font-style="italic" lengthAdjust="spacing" textLength="49.8457" x="119.1709" y="211.1387">&#171;Entity&#187;</text><text fill="#000000" font-family="sans-serif" font-size="12" font-style="italic" lengthAdjust="spacing" textLength="42.5391" x="122.8242" y="225.1074">&#171;Root&#187;</text><text fill="#000000" font-family="sans-serif" font-size="14" lengthAdjust="spacing" textLength="51.6729" x="118.2573" y="240.9326">Aircraft</text><line style="stroke:#181818;stroke-width:0.5;" x1="8" x2="247.6875" y1="249.2344" y2="249.2344"/><text fill="#000000" font-family="sans-serif" font-size="14" lengthAdjust="spacing" textLength="137.3203" x="13" y="266.2295">registrationNumber</text><text fill="#000000" font-family="sans-serif" font-size="14" lengthAdjust="spacing" textLength="229.6875" x="13" y="282.5264">accumulatedFlightHours: Double</text></g><!--class MaintenanceTemplate--><g class="entity" data-qualified-name="MaintenanceTemplate" data-source-line="8" id="ent0003"><rect fill="#F1F1F1" height="62.2344" rx="2.5" ry="2.5" style="stroke:#181818;stroke-width:0.5;" width="188.4199" x="278" y="31.5"/><ellipse cx="293" cy="58.6172" fill="#ADD1B2" rx="11" ry="11" style="stroke:#181818;stroke-width:1;"/><path d="M297.1094,64.6172 L289.3906,64.6172 L289.3906,52.2266 L297.1094,52.2266 L297.1094,54.3828 L291.8438,54.3828 L291.8438,57.0547 L296.6094,57.0547 L296.6094,59.2109 L291.8438,59.2109 L291.8438,62.4609 L297.1094,62.4609 L297.1094,64.6172 Z " fill="#000000"/><text fill="#000000" font-family="sans-serif" font-size="12" font-style="italic" lengthAdjust="spacing" textLength="49.8457" x="360.2871" y="47.6387">&#171;Entity&#187;</text><text fill="#000000" font-family="sans-serif" font-size="12" font-style="italic" lengthAdjust="spacing" textLength="42.5391" x="363.9404" y="61.6074">&#171;Root&#187;</text><text fill="#000000" font-family="sans-serif" font-size="14" lengthAdjust="spacing" textLength="156.4199" x="307" y="77.4326">MaintenanceTemplate</text><line style="stroke:#181818;stroke-width:0.5;" x1="279" x2="465.4199" y1="85.7344" y2="85.7344"/></g><!--class MaintenanceInterval--><g class="entity" data-qualified-name="MaintenanceInterval" data-source-line="9" id="ent0004"><rect fill="#F1F1F1" height="80.8594" rx="2.5" ry="2.5" style="stroke:#181818;stroke-width:0.5;" width="175.7734" x="284" y="202"/><ellipse cx="299" cy="222.1328" fill="#ADD1B2" rx="11" ry="11" style="stroke:#181818;stroke-width:1;"/><path d="M301.9688,227.7734 Q301.3906,228.0703 300.75,228.2109 Q300.1094,228.3672 299.4063,228.3672 Q296.9063,228.3672 295.5781,226.7266 Q294.2656,225.0703 294.2656,221.9453 Q294.2656,218.8203 295.5781,217.1641 Q296.9063,215.5078 299.4063,215.5078 Q300.1094,215.5078 300.75,215.6641 Q301.4063,215.8203 301.9688,216.1172 L301.9688,218.8359 Q301.3438,218.2578 300.75,217.9922 Q300.1563,217.7109 299.5313,217.7109 Q298.1875,217.7109 297.5,218.7891 Q296.8125,219.8516 296.8125,221.9453 Q296.8125,224.0391 297.5,225.1172 Q298.1875,226.1797 299.5313,226.1797 Q300.1563,226.1797 300.75,225.9141 Q301.3438,225.6328 301.9688,225.0547 L301.9688,227.7734 Z " fill="#000000"/><text fill="#000000" font-family="sans-serif" font-size="12" font-style="italic" lengthAdjust="spacing" textLength="91.5938" x="339.0898" y="218.1387">&#171;Value Object&#187;</text><text fill="#000000" font-family="sans-serif" font-size="14" lengthAdjust="spacing" textLength="143.7734" x="313" y="233.9639">MaintenanceInterval</text><line style="stroke:#181818;stroke-width:0.5;" x1="285" x2="458.7734" y1="242.2656" y2="242.2656"/><text fill="#000000" font-family="sans-serif" font-size="14" lengthAdjust="spacing" textLength="76.9727" x="290" y="259.2607">flightHours</text><text fill="#000000" font-family="sans-serif" font-size="14" lengthAdjust="spacing" textLength="95.8125" x="290" y="275.5576">calendarDays</text></g><!--class MaintenanceRecord--><g class="entity" data-qualified-name="MaintenanceRecord" data-source-line="14" id="ent0005"><rect fill="#F1F1F1" height="94.8281" rx="2.5" ry="2.5" style="stroke:#181818;stroke-width:0.5;" width="182.9941" x="714.5" y="15"/><ellipse cx="734.715" cy="42.1172" fill="#ADD1B2" rx="11" ry="11" style="stroke:#181818;stroke-width:1;"/><path d="M738.8244,48.1172 L731.1056,48.1172 L731.1056,35.7266 L738.8244,35.7266 L738.8244,37.8828 L733.5587,37.8828 L733.5587,40.5547 L738.3244,40.5547 L738.3244,42.7109 L733.5587,42.7109 L733.5587,45.9609 L738.8244,45.9609 L738.8244,48.1172 Z " fill="#000000"/><text fill="#000000" font-family="sans-serif" font-size="12" font-style="italic" lengthAdjust="spacing" textLength="49.8457" x="794.6537" y="31.1387">&#171;Entity&#187;</text><text fill="#000000" font-family="sans-serif" font-size="12" font-style="italic" lengthAdjust="spacing" textLength="42.5391" x="798.307" y="45.1074">&#171;Root&#187;</text><text fill="#000000" font-family="sans-serif" font-size="14" lengthAdjust="spacing" textLength="139.4053" x="749.8739" y="60.9326">MaintenanceRecord</text><line style="stroke:#181818;stroke-width:0.5;" x1="715.5" x2="896.4941" y1="69.2344" y2="69.2344"/><text fill="#000000" font-family="sans-serif" font-size="14" lengthAdjust="spacing" textLength="135.7275" x="720.5" y="86.2295">aircraftRegistration</text><text fill="#000000" font-family="sans-serif" font-size="14" lengthAdjust="spacing" textLength="170.9941" x="720.5" y="102.5264">maintenanceTemplateId</text></g><!--class CompletionNotes--><g class="entity" data-qualified-name="CompletionNotes" data-source-line="19" id="ent0006"><rect fill="#F1F1F1" height="80.8594" rx="2.5" ry="2.5" style="stroke:#181818;stroke-width:0.5;" width="296.7988" x="495.5" y="202"/><ellipse cx="579.3394" cy="222.1328" fill="#ADD1B2" rx="11" ry="11" style="stroke:#181818;stroke-width:1;"/><path d="M582.3081,227.7734 Q581.73,228.0703 581.0894,228.2109 Q580.4487,228.3672 579.7456,228.3672 Q577.2456,228.3672 575.9175,226.7266 Q574.605,225.0703 574.605,221.9453 Q574.605,218.8203 575.9175,217.1641 Q577.2456,215.5078 579.7456,215.5078 Q580.4487,215.5078 581.0894,215.6641 Q581.7456,215.8203 582.3081,216.1172 L582.3081,218.8359 Q581.6831,218.2578 581.0894,217.9922 Q580.4956,217.7109 579.8706,217.7109 Q578.5269,217.7109 577.8394,218.7891 Q577.1519,219.8516 577.1519,221.9453 Q577.1519,224.0391 577.8394,225.1172 Q578.5269,226.1797 579.8706,226.1797 Q580.4956,226.1797 581.0894,225.9141 Q581.6831,225.6328 582.3081,225.0547 L582.3081,227.7734 Z " fill="#000000"/><text fill="#000000" font-family="sans-serif" font-size="12" font-style="italic" lengthAdjust="spacing" textLength="91.5938" x="614.3525" y="218.1387">&#171;Value Object&#187;</text><text fill="#000000" font-family="sans-serif" font-size="14" lengthAdjust="spacing" textLength="120.6201" x="599.8394" y="233.9639">CompletionNotes</text><line style="stroke:#181818;stroke-width:0.5;" x1="496.5" x2="791.2988" y1="242.2656" y2="242.2656"/><text fill="#000000" font-family="sans-serif" font-size="14" lengthAdjust="spacing" textLength="111.5693" x="501.5" y="259.2607">completionDate</text><text fill="#000000" font-family="sans-serif" font-size="14" lengthAdjust="spacing" textLength="284.7988" x="501.5" y="275.5576">aircraftFlightHoursAtCompletion: Double</text></g><!--class Alert--><g class="entity" data-qualified-name="Alert" data-source-line="24" id="ent0007"><rect fill="#F1F1F1" height="111.125" rx="2.5" ry="2.5" style="stroke:#181818;stroke-width:0.5;" width="80.7012" x="87.5" y="7"/><ellipse cx="103.785" cy="34.1172" fill="#ADD1B2" rx="11" ry="11" style="stroke:#181818;stroke-width:1;"/><path d="M107.8943,40.1172 L100.1756,40.1172 L100.1756,27.7266 L107.8943,27.7266 L107.8943,29.8828 L102.6287,29.8828 L102.6287,32.5547 L107.3943,32.5547 L107.3943,34.7109 L102.6287,34.7109 L102.6287,37.9609 L107.8943,37.9609 L107.8943,40.1172 Z " fill="#000000"/><text fill="#000000" font-family="sans-serif" font-size="12" font-style="italic" lengthAdjust="spacing" textLength="49.8457" x="116.0705" y="23.1387">&#171;Entity&#187;</text><text fill="#000000" font-family="sans-serif" font-size="12" font-style="italic" lengthAdjust="spacing" textLength="42.5391" x="119.7238" y="37.1074">&#171;Root&#187;</text><text fill="#000000" font-family="sans-serif" font-size="14" lengthAdjust="spacing" textLength="33.3252" x="124.3308" y="52.9326">Alert</text><line style="stroke:#181818;stroke-width:0.5;" x1="88.5" x2="167.2012" y1="61.2344" y2="61.2344"/><text fill="#000000" font-family="sans-serif" font-size="14" lengthAdjust="spacing" textLength="62.918" x="93.5" y="78.2295">message</text><text fill="#000000" font-family="sans-serif" font-size="14" lengthAdjust="spacing" textLength="68.7012" x="93.5" y="94.5264">createdAt</text><text fill="#000000" font-family="sans-serif" font-size="14" lengthAdjust="spacing" textLength="46.9902" x="93.5" y="110.8232">isRead</text></g><g class="entity" data-qualified-name="GMN11" data-source-line="35" id="ent0012"><path d="M828,215 L828,270.3984 A0,0 0 0 0 828,270.3984 L1105.7754,270.3984 A0,0 0 0 0 1105.7754,270.3984 L1105.7754,225 L1095.7754,215 L946.95,215 L848.3,110.27 L938.95,215 L828,215 A0,0 0 0 0 828,215" fill="#FEFFDD" style="stroke:#181818;stroke-width:0.5;"/><path d="M1095.7754,215 L1095.7754,225 L1105.7754,225 L1095.7754,215" fill="#FEFFDD" style="stroke:#181818;stroke-width:0.5;"/><text fill="#000000" font-family="sans-serif" font-size="13" lengthAdjust="spacing" textLength="256.7754" x="834" y="232.0669">The Scheduler checks the gap between</text><text fill="#000000" font-family="sans-serif" font-size="13" lengthAdjust="spacing" textLength="238.3037" x="834" y="247.1997">Aircraft's current hours/date and the</text><text fill="#000000" font-family="sans-serif" font-size="13" lengthAdjust="spacing" textLength="217.02" x="834" y="262.3325">latest Record's CompletionNotes.</text></g><!--link MaintenanceTemplate to MaintenanceInterval--><g class="link" data-entity-1="ent0003" data-entity-2="ent0004" data-link-type="dependency" data-source-line="30" id="lnk8"><path codeLine="30" d="M372,93.7 C372,123.45 372,163.08 372,195.77" fill="none" id="MaintenanceTemplate-to-MaintenanceInterval" style="stroke:#181818;stroke-width:1;"/><polygon fill="#181818" points="372,201.77,376,192.77,372,196.77,368,192.77,372,201.77" style="stroke:#181818;stroke-width:1;"/><text fill="#000000" font-family="sans-serif" font-size="13" lengthAdjust="spacing" textLength="47.4487" x="373" y="161.0669">defines</text><text fill="#000000" font-family="sans-serif" font-size="13" lengthAdjust="spacing" textLength="8.271" x="363.1596" y="113.7383">1</text><text fill="#000000" font-family="sans-serif" font-size="13" lengthAdjust="spacing" textLength="8.271" x="363.3787" y="190.8714">1</text></g><!--link MaintenanceRecord to CompletionNotes--><g class="link" data-entity-1="ent0005" data-entity-2="ent0006" data-link-type="dependency" data-source-line="31" id="lnk9"><path codeLine="31" d="M763.44,110.27 C737.47,138.8 708.6782,170.4323 684.0182,197.5323" fill="none" id="MaintenanceRecord-to-CompletionNotes" style="stroke:#181818;stroke-width:1;"/><polygon fill="#181818" points="679.98,201.97,688.9957,198.0055,683.3451,198.2719,683.0788,192.6213,679.98,201.97" style="stroke:#181818;stroke-width:1;"/><text fill="#000000" font-family="sans-serif" font-size="13" lengthAdjust="spacing" textLength="98.5537" x="726" y="161.0669">concluded with</text><text fill="#000000" font-family="sans-serif" font-size="13" lengthAdjust="spacing" textLength="8.271" x="749.2021" y="129.7843">1</text><text fill="#000000" font-family="sans-serif" font-size="13" lengthAdjust="spacing" textLength="24.8066" x="660.1882" y="190.8052">0..1</text></g><!--link Alert to Aircraft--><g class="link" data-entity-1="ent0007" data-entity-2="ent0002" data-link-type="dependency" data-source-line="32" id="lnk10"><path codeLine="32" d="M128,118.36 C128,142.87 128,165.46 128,188.92" fill="none" id="Alert-to-Aircraft" style="stroke:#181818;stroke-width:1;"/><polygon fill="#181818" points="128,194.92,132,185.92,128,189.92,124,185.92,128,194.92" style="stroke:#181818;stroke-width:1;"/><text fill="#000000" font-family="sans-serif" font-size="13" lengthAdjust="spacing" textLength="46.5283" x="129" y="161.0669">targets</text><text fill="#000000" font-family="sans-serif" font-size="13" lengthAdjust="spacing" textLength="6.5" x="121.6831" y="138.1494">*</text><text fill="#000000" font-family="sans-serif" font-size="13" lengthAdjust="spacing" textLength="8.271" x="119.4554" y="183.9194">1</text></g><?plantuml-src TLB1JW8n4BtlLqoua9Y0UjqG4Y8QEQW94k-pxR1RxRQadKg8yT-TWi96bjE-dSpCU_DU6wC9MkB6wrWKvDZm3cOcg81hXidaVb-PJWKklMS1NmL0eDf43iZ6k-VKLXIaY4gbDbbaqW_Mr0q_-XHY2NEVAal5zt7z4nh7vD0fMb6xoHDzJ8Mo66EtUo4WVAALbZUqYU2bUYVr9sfz8fK_XPQSnZ37NUpdNfBoGL-y4NzDM7PkbN9xBdwXCy51xPsN6krzyKonNwawDirblCFLyMt6frKz7iuiXSlvj1GZrdcp2fG3cR5W4vU4Uwrz2Gnk1p0QJVVVFizBqBGsZc9nxk5nzcOy5lZVX58kTiecJHgsXflYe7vmTM8yFhaI64DDBA_HoJ1KdjctuDVdqSb9guRWLJMaasm40UeZ0aknnWrKn5kY7DhVzc44bK8G3w799b_hV3awdMUaBniH6GxhXsTfZiLz3LdM3m00?></g></svg>