<svg xmlns="http://www.w3.org/2000/svg" xmlns:xlink="http://www.w3.org/1999/xlink" contentStyleType="text/css" height="488px" preserveAspectRatio="none" style="width:1277px;height:488px;background:#FFFFFF;" version="1.1" viewBox="0 0 1277 488" width="1277px" zoomAndPan="magnify"><defs/><g><rect fill="#FFFFFF" height="295.5156" style="stroke:#181818;stroke-width:1.0;" width="10" x="22.0552" y="92.6094"/><rect fill="#FFFFFF" height="273.1641" style="stroke:#181818;stroke-width:1.0;" width="10" x="328.2075" y="114.9609"/><rect fill="#FFFFFF" height="151.7578" style="stroke:#181818;stroke-width:1.0;" width="10" x="547.6255" y="145.3125"/><rect fill="#FFFFFF" height="30.3516" style="stroke:#181818;stroke-width:1.0;" width="10" x="784.0659" y="175.6641"/><rect fill="#FFFFFF" height="30.3516" style="stroke:#181818;stroke-width:1.0;" width="10" x="1013.5063" y="236.3672"/><rect fill="#FFFFFF" height="30.3516" style="stroke:#181818;stroke-width:1.0;" width="10" x="1197.4092" y="327.4219"/><line style="stroke:#181818;stroke-width:0.5;stroke-dasharray:5.0,5.0;" x1="27" x2="27" y1="82.6094" y2="406.125"/><line style="stroke:#181818;stroke-width:0.5;stroke-dasharray:5.0,5.0;" x1="333.1768" x2="333.1768" y1="82.6094" y2="406.125"/><line style="stroke:#181818;stroke-width:0.5;stroke-dasharray:5.0,5.0;" x1="551.9639" x2="551.9639" y1="82.6094" y2="406.125"/><line style="stroke:#181818;stroke-width:0.5;stroke-dasharray:5.0,5.0;" x1="788.2871" x2="788.2871" y1="82.6094" y2="406.125"/><line style="stroke:#181818;stroke-width:0.5;stroke-dasharray:5.0,5.0;" x1="1017.8447" x2="1017.8447" y1="82.6094" y2="406.125"/><line style="stroke:#181818;stroke-width:0.5;stroke-dasharray:5.0,5.0;" x1="1202.168" x2="1202.168" y1="82.6094" y2="406.125"/><text fill="#000000" font-family="sans-serif" font-size="14" lengthAdjust="spacing" textLength="38.1104" x="5" y="79.5332">ATCC</text><ellipse cx="27.0552" cy="13.5" fill="#E2E2F0" rx="8" ry="8" style="stroke:#181818;stroke-width:0.5;"/><path d="M27.0552,21.5 L27.0552,48.5 M14.0552,29.5 L40.0552,29.5 M27.0552,48.5 L14.0552,63.5 M27.0552,48.5 L40.0552,63.5 " fill="none" style="stroke:#181818;stroke-width:0.5;"/><text fill="#000000" font-family="sans-serif" font-size="14" lengthAdjust="spacing" textLength="38.1104" x="5" y="419.6582">ATCC</text><ellipse cx="27.0552" cy="431.2344" fill="#E2E2F0" rx="8" ry="8" style="stroke:#181818;stroke-width:0.5;"/><path d="M27.0552,439.2344 L27.0552,466.2344 M14.0552,447.2344 L40.0552,447.2344 M27.0552,466.2344 L14.0552,481.2344 M27.0552,466.2344 L40.0552,481.2344 " fill="none" style="stroke:#181818;stroke-width:0.5;"/><rect fill="#E2E2F0" height="49.2188" rx="2.5" ry="2.5" style="stroke:#181818;stroke-width:0.5;" width="154.0615" x="256.1768" y="32.3906"/><text fill="#000000" font-family="sans-serif" font-size="14" font-style="italic" lengthAdjust="spacing" textLength="76.2617" x="295.0767" y="53.9238">&#171;Controller&#187;</text><text fill="#000000" font-family="sans-serif" font-size="14" lengthAdjust="spacing" textLength="140.0615" x="263.1768" y="71.5332">: FlightRouteController</text><rect fill="#E2E2F0" height="49.2188" rx="2.5" ry="2.5" style="stroke:#181818;stroke-width:0.5;" width="154.0615" x="256.1768" y="405.125"/><text fill="#000000" font-family="sans-serif" font-size="14" font-style="italic" lengthAdjust="spacing" textLength="76.2617" x="295.0767" y="426.6582">&#171;Controller&#187;</text><text fill="#000000" font-family="sans-serif" font-size="14" lengthAdjust="spacing" textLength="140.0615" x="263.1768" y="444.2676">: FlightRouteController</text><rect fill="#E2E2F0" height="49.2188" rx="2.5" ry="2.5" style="stroke:#181818;stroke-width:0.5;" width="223.3232" x="440.9639" y="32.3906"/><text fill="#000000" font-family="sans-serif" font-size="14" font-style="italic" lengthAdjust="spacing" textLength="62.2549" x="521.498" y="53.9238">&#171;Service&#187;</text><text fill="#000000" font-family="sans-serif" font-size="14" lengthAdjust="spacing" textLength="209.3232" x="447.9639" y="71.5332">: SearchAlternativeRoutesService</text><rect fill="#E2E2F0" height="49.2188" rx="2.5" ry="2.5" style="stroke:#181818;stroke-width:0.5;" width="223.3232" x="440.9639" y="405.125"/><text fill="#000000" font-family="sans-serif" font-size="14" font-style="italic" lengthAdjust="spacing" textLength="62.2549" x="521.498" y="426.6582">&#171;Service&#187;</text><text fill="#000000" font-family="sans-serif" font-size="14" lengthAdjust="spacing" textLength="209.3232" x="447.9639" y="444.2676">: SearchAlternativeRoutesService</text><rect fill="#E2E2F0" height="49.2188" rx="2.5" ry="2.5" style="stroke:#181818;stroke-width:0.5;" width="229.5576" x="674.2871" y="32.3906"/><text fill="#000000" font-family="sans-serif" font-size="14" font-style="italic" lengthAdjust="spacing" textLength="82.4893" x="747.8213" y="53.9238">&#171;Repository&#187;</text><text fill="#000000" font-family="sans-serif" font-size="14" lengthAdjust="spacing" textLength="215.5576" x="681.2871" y="71.5332">routeRepo : FlightRouteRepository</text><rect fill="#E2E2F0" height="49.2188" rx="2.5" ry="2.5" style="stroke:#181818;stroke-width:0.5;" width="229.5576" x="674.2871" y="405.125"/><text fill="#000000" font-family="sans-serif" font-size="14" font-style="italic" lengthAdjust="spacing" textLength="82.4893" x="747.8213" y="426.6582">&#171;Repository&#187;</text><text fill="#000000" font-family="sans-serif" font-size="14" lengthAdjust="spacing" textLength="215.5576" x="681.2871" y="444.2676">routeRepo : FlightRouteRepository</text><rect fill="#E2E2F0" height="49.2188" rx="2.5" ry="2.5" style="stroke:#181818;stroke-width:0.5;" width="209.3232" x="913.8447" y="32.3906"/><text fill="#000000" font-family="sans-serif" font-size="14" font-style="italic" lengthAdjust="spacing" textLength="67.71" x="984.6514" y="53.9238">&#171;Strategy&#187;</text><text fill="#000000" font-family="sans-serif" font-size="14" lengthAdjust="spacing" textLength="195.3232" x="920.8447" y="71.5332">strategy : RouteSearchStrategy</text><rect fill="#E2E2F0" height="49.2188" rx="2.5" ry="2.5" style="stroke:#181818;stroke-width:0.5;" width="209.3232" x="913.8447" y="405.125"/><text fill="#000000" font-family="sans-serif" font-size="14" font-style="italic" lengthAdjust="spacing" textLength="67.71" x="984.6514" y="426.6582">&#171;Strategy&#187;</text><text fill="#000000" font-family="sans-serif" font-size="14" lengthAdjust="spacing" textLength="195.3232" x="920.8447" y="444.2676">strategy : RouteSearchStrategy</text><rect fill="#E2E2F0" height="49.2188" rx="2.5" ry="2.5" style="stroke:#181818;stroke-width:0.5;" width="138.4824" x="1133.168" y="32.3906"/><text fill="#000000" font-family="sans-serif" font-size="14" font-style="italic" lengthAdjust="spacing" textLength="87.9512" x="1158.4336" y="53.9238">&#171;Component&#187;</text><text fill="#000000" font-family="sans-serif" font-size="14" lengthAdjust="spacing" textLength="124.4824" x="1140.168" y="71.5332">: ItineraryAssembler</text><rect fill="#E2E2F0" height="49.2188" rx="2.5" ry="2.5" style="stroke:#181818;stroke-width:0.5;" width="138.4824" x="1133.168" y="405.125"/><text fill="#000000" font-family="sans-serif" font-size="14" font-style="italic" lengthAdjust="spacing" textLength="87.9512" x="1158.4336" y="426.6582">&#171;Component&#187;</text><text fill="#000000" font-family="sans-serif" font-size="14" lengthAdjust="spacing" textLength="124.4824" x="1140.168" y="444.2676">: ItineraryAssembler</text><rect fill="#FFFFFF" height="295.5156" style="stroke:#181818;stroke-width:1.0;" width="10" x="22.0552" y="92.6094"/><rect fill="#FFFFFF" height="273.1641" style="stroke:#181818;stroke-width:1.0;" width="10" x="328.2075" y="114.9609"/><rect fill="#FFFFFF" height="151.7578" style="stroke:#181818;stroke-width:1.0;" width="10" x="547.6255" y="145.3125"/><rect fill="#FFFFFF" height="30.3516" style="stroke:#181818;stroke-width:1.0;" width="10" x="784.0659" y="175.6641"/><rect fill="#FFFFFF" height="30.3516" style="stroke:#181818;stroke-width:1.0;" width="10" x="1013.5063" y="236.3672"/><rect fill="#FFFFFF" height="30.3516" style="stroke:#181818;stroke-width:1.0;" width="10" x="1197.4092" y="327.4219"/><polygon fill="#181818" points="316.2075,110.9609,326.2075,114.9609,316.2075,118.9609,320.2075,114.9609" style="stroke:#181818;stroke-width:1.0;"/><line style="stroke:#181818;stroke-width:1.0;" x1="32.0552" x2="322.2075" y1="114.9609" y2="114.9609"/><text fill="#000000" font-family="sans-serif" font-size="13" font-weight="bold" lengthAdjust="spacing" textLength="7.23" x="39.0552" y="110.1045">1</text><text fill="#000000" font-family="sans-serif" font-size="13" lengthAdjust="spacing" textLength="265.9224" x="50.2852" y="110.1045">GET /api/routes/alternatives?origin=X&amp;dest=Y</text><polygon fill="#181818" points="535.6255,141.3125,545.6255,145.3125,535.6255,149.3125,539.6255,145.3125" style="stroke:#181818;stroke-width:1.0;"/><line style="stroke:#181818;stroke-width:1.0;" x1="338.2075" x2="541.6255" y1="145.3125" y2="145.3125"/><text fill="#000000" font-family="sans-serif" font-size="13" font-weight="bold" lengthAdjust="spacing" textLength="7.23" x="345.2075" y="140.4561">2</text><text fill="#000000" font-family="sans-serif" font-size="13" lengthAdjust="spacing" textLength="179.188" x="356.4375" y="140.4561">searchAlternatives(origin, dest)</text><polygon fill="#181818" points="772.0659,171.6641,782.0659,175.6641,772.0659,179.6641,776.0659,175.6641" style="stroke:#181818;stroke-width:1.0;"/><line style="stroke:#181818;stroke-width:1.0;" x1="557.6255" x2="778.0659" y1="175.6641" y2="175.6641"/><text fill="#000000" font-family="sans-serif" font-size="13" font-weight="bold" lengthAdjust="spacing" textLength="7.23" x="564.6255" y="170.8076">3</text><text fill="#000000" font-family="sans-serif" font-size="13" lengthAdjust="spacing" textLength="79.4663" x="575.8555" y="170.8076">findAllActive()</text><polygon fill="#181818" points="568.6255,202.0156,558.6255,206.0156,568.6255,210.0156,564.6255,206.0156" style="stroke:#181818;stroke-width:1.0;"/><line style="stroke:#181818;stroke-width:1.0;stroke-dasharray:2.0,2.0;" x1="562.6255" x2="788.0659" y1="206.0156" y2="206.0156"/><text fill="#000000" font-family="sans-serif" font-size="13" font-weight="bold" lengthAdjust="spacing" textLength="7.23" x="574.6255" y="201.1592">4</text><text fill="#000000" font-family="sans-serif" font-size="13" lengthAdjust="spacing" textLength="101.8926" x="585.8555" y="201.1592">List&lt;FlightRoute&gt;</text><polygon fill="#181818" points="1001.5063,232.3672,1011.5063,236.3672,1001.5063,240.3672,1005.5063,236.3672" style="stroke:#181818;stroke-width:1.0;"/><line style="stroke:#181818;stroke-width:1.0;" x1="557.6255" x2="1007.5063" y1="236.3672" y2="236.3672"/><text fill="#000000" font-family="sans-serif" font-size="13" font-weight="bold" lengthAdjust="spacing" textLength="7.23" x="564.6255" y="231.5107">5</text><text fill="#000000" font-family="sans-serif" font-size="13" lengthAdjust="spacing" textLength="193.6416" x="575.8555" y="231.5107">search(activeRoutes, origin, dest)</text><polygon fill="#181818" points="568.6255,262.7188,558.6255,266.7188,568.6255,270.7188,564.6255,266.7188" style="stroke:#181818;stroke-width:1.0;"/><line style="stroke:#181818;stroke-width:1.0;stroke-dasharray:2.0,2.0;" x1="562.6255" x2="1017.5063" y1="266.7188" y2="266.7188"/><text fill="#000000" font-family="sans-serif" font-size="13" font-weight="bold" lengthAdjust="spacing" textLength="7.23" x="574.6255" y="261.8623">6</text><text fill="#000000" font-family="sans-serif" font-size="13" lengthAdjust="spacing" textLength="82.3735" x="585.8555" y="261.8623">List&lt;Itinerary&gt;</text><polygon fill="#181818" points="349.2075,293.0703,339.2075,297.0703,349.2075,301.0703,345.2075,297.0703" style="stroke:#181818;stroke-width:1.0;"/><line style="stroke:#181818;stroke-width:1.0;stroke-dasharray:2.0,2.0;" x1="343.2075" x2="551.6255" y1="297.0703" y2="297.0703"/><text fill="#000000" font-family="sans-serif" font-size="13" font-weight="bold" lengthAdjust="spacing" textLength="7.23" x="355.2075" y="292.2139">7</text><text fill="#000000" font-family="sans-serif" font-size="13" lengthAdjust="spacing" textLength="82.3735" x="366.4375" y="292.2139">List&lt;Itinerary&gt;</text><polygon fill="#181818" points="1185.4092,323.4219,1195.4092,327.4219,1185.4092,331.4219,1189.4092,327.4219" style="stroke:#181818;stroke-width:1.0;"/><line style="stroke:#181818;stroke-width:1.0;" x1="338.2075" x2="1191.4092" y1="327.4219" y2="327.4219"/><text fill="#000000" font-family="sans-serif" font-size="13" font-weight="bold" lengthAdjust="spacing" textLength="7.23" x="345.2075" y="322.5654">8</text><text fill="#000000" font-family="sans-serif" font-size="13" lengthAdjust="spacing" textLength="123.5254" x="356.4375" y="322.5654">toDTOList(itineraries)</text><polygon fill="#181818" points="349.2075,353.7734,339.2075,357.7734,349.2075,361.7734,345.2075,357.7734" style="stroke:#181818;stroke-width:1.0;"/><line style="stroke:#181818;stroke-width:1.0;stroke-dasharray:2.0,2.0;" x1="343.2075" x2="1201.4092" y1="357.7734" y2="357.7734"/><text fill="#000000" font-family="sans-serif" font-size="13" font-weight="bold" lengthAdjust="spacing" textLength="7.23" x="355.2075" y="352.917">9</text><text fill="#000000" font-family="sans-serif" font-size="13" lengthAdjust="spacing" textLength="109.8145" x="366.4375" y="352.917">List&lt;ItineraryDTO&gt;</text><polygon fill="#181818" points="38.0552,384.125,28.0552,388.125,38.0552,392.125,34.0552,388.125" style="stroke:#181818;stroke-width:1.0;"/><line style="stroke:#181818;stroke-width:1.0;stroke-dasharray:2.0,2.0;" x1="32.0552" x2="332.2075" y1="388.125" y2="388.125"/><text fill="#000000" font-family="sans-serif" font-size="13" font-weight="bold" lengthAdjust="spacing" textLength="14.46" x="44.0552" y="383.2686">10</text><text fill="#000000" font-family="sans-serif" font-size="13" lengthAdjust="spacing" textLength="136.5317" x="62.5151" y="383.2686">200 OK (itineraryDTOs)</text><!--SRC=[VP9DJm8n48Rl_HKJ3hec68Z73M8seCPeeW4EUgmmBarAksa74lwzRRVRBlXn8MLsddTctXc-9wtskqyqZAz96nXKgzbi0Do2Vp3MS4DYBHgk20ObF4XHRscXzuGphSXeAT64z1aP2PD9Zawdv_0IkLblAqbe52TnmA1ZbsWEOer19RwTK7oTgnYFBB3HSDACZrZX1ZW6cHHpGldJkPObmmdhevCAGDlVCaRRVheKrr1y_fphYOH2mysniXPtdvqZwL-mPTTeXOeSxPqM1wSLBVQ_S3rj7IpXyNu58zw8KHZLZdZsozvf8sgXRjylDcZfzYDBUPYn8E6aEXjBiEUUswBL68ANkCeAaM6iWvtEekVsbr2RIihAvsFH0rCIo-dN9qsy24kJthQcR8E_uEmIvYYnzb7IG5k4HkxhcZiJWSlQDKxR7HHfAM-S_5nN_PQNUQdjx4Me56zj27zD7p6M-5z6I8i-6I2XkOsypV-upl1kQ_bWIZV_VFNguK94MA3jzPjoMQR-BEkaJYfdEDRsnVqLbd0p7iFhCwIgddLrUt2ujBwOF-9l]--></g></svg>