<?xml version="1.0" encoding="us-ascii" standalone="no"?><svg xmlns="http://www.w3.org/2000/svg" xmlns:xlink="http://www.w3.org/1999/xlink" contentStyleType="text/css" height="519px" preserveAspectRatio="none" style="width:1174px;height:519px;background:#FFFFFF;" version="1.1" viewBox="0 0 1174 519" width="1174px" zoomAndPan="magnify"><defs/><g><!--cluster Airport Aggregate--><g id="cluster_Airport Aggregate"><rect fill="none" height="349" rx="2.5" ry="2.5" style="stroke:#000000;stroke-width:1.5;" width="438" x="413" y="7"/><text fill="#000000" font-family="sans-serif" font-size="14" font-weight="bold" lengthAdjust="spacing" textLength="125" x="569.5" y="23.5332">Airport Aggregate</text></g><!--cluster Aircraft Aggregate--><g id="cluster_Aircraft Aggregate"><rect fill="none" height="488" rx="2.5" ry="2.5" style="stroke:#000000;stroke-width:1.5;" width="248" x="920" y="25"/><text fill="#000000" font-family="sans-serif" font-size="14" font-weight="bold" lengthAdjust="spacing" textLength="128" x="980" y="41.5332">Aircraft Aggregate</text></g><!--class Airport--><g id="elem_Airport"><rect codeLine="5" fill="#F1F1F1" height="126.625" id="Airport" rx="2.5" ry="2.5" style="stroke:#181818;stroke-width:0.5;" width="405" x="429.5" y="43"/><ellipse cx="606.75" cy="71.8984" fill="#ADD1B2" rx="11" ry="11" style="stroke:#181818;stroke-width:1.0;"/><path d="M609.5156,67.7734 Q609.6719,67.5547 609.8594,67.4453 Q610.0469,67.3359 610.2656,67.3359 Q610.6406,67.3359 610.875,67.6016 Q611.1094,67.8516 611.1094,68.4609 L611.1094,69.9141 Q611.1094,70.5234 610.875,70.7891 Q610.6406,71.0547 610.2656,71.0547 Q609.9219,71.0547 609.7188,70.8516 Q609.5156,70.6641 609.4063,70.1484 Q609.3594,69.7891 609.1719,69.6016 Q608.8438,69.2266 608.2344,69.0078 Q607.625,68.7891 607,68.7891 Q606.2344,68.7891 605.5938,69.1172 Q604.9688,69.4453 604.4688,70.1953 Q603.9844,70.9453 603.9844,71.9766 L603.9844,73.0703 Q603.9844,74.3047 604.875,75.1328 Q605.7656,75.9453 607.3594,75.9453 Q608.2969,75.9453 608.9531,75.6953 Q609.3438,75.5391 609.7656,75.1016 Q610.0313,74.8359 610.1719,74.7578 Q610.3281,74.6797 610.5313,74.6797 Q610.8594,74.6797 611.1094,74.9453 Q611.375,75.1953 611.375,75.5391 Q611.375,75.8828 611.0313,76.2891 Q610.5313,76.8672 609.7344,77.1953 Q608.6563,77.6484 607.3594,77.6484 Q605.8438,77.6484 604.6406,77.0234 Q603.6563,76.5234 602.9688,75.4609 Q602.2813,74.3828 602.2813,73.1016 L602.2813,71.9453 Q602.2813,70.6172 602.8906,69.4766 Q603.5156,68.3203 604.6094,67.7109 Q605.7031,67.0859 606.9375,67.0859 Q607.6719,67.0859 608.3125,67.2578 Q608.9688,67.4141 609.5156,67.7734 Z " fill="#000000"/><text fill="#000000" font-family="sans-serif" font-size="12" font-style="italic" lengthAdjust="spacing" textLength="44" x="626.25" y="60.457">&#171;Entity&#187;</text><text fill="#000000" font-family="sans-serif" font-size="12" font-style="italic" lengthAdjust="spacing" textLength="40" x="628.25" y="75.5508">&#171;Root&#187;</text><text fill="#000000" font-family="sans-serif" font-size="14" lengthAdjust="spacing" textLength="42" x="627.25" y="92.7207">Airport</text><line style="stroke:#181818;stroke-width:0.5;" x1="430.5" x2="833.5" y1="100.7969" y2="100.7969"/><text fill="#000000" font-family="sans-serif" font-size="14" lengthAdjust="spacing" textLength="166" x="435.5" y="119.3301">-iataCode        : IATACode</text><text fill="#000000" font-family="sans-serif" font-size="14" lengthAdjust="spacing" textLength="262" x="435.5" y="136.9395">-certifiedModels : Set&lt;ModelDesignation&gt;</text><line style="stroke:#181818;stroke-width:0.5;" x1="430.5" x2="833.5" y1="144.0156" y2="144.0156"/><text fill="#000000" font-family="sans-serif" font-size="14" lengthAdjust="spacing" textLength="393" x="435.5" y="162.5488">+addCertification(modelDesignation : ModelDesignation) : void</text></g><!--class IATACode--><g id="elem_IATACode"><rect codeLine="10" fill="#F1F1F1" height="76.3125" id="IATACode" rx="2.5" ry="2.5" style="stroke:#181818;stroke-width:0.5;" width="113" x="485.5" y="264"/><ellipse cx="500.5" cy="285.3516" fill="#ADD1B2" rx="11" ry="11" style="stroke:#181818;stroke-width:1.0;"/><path d="M503.2656,281.2266 Q503.4219,281.0078 503.6094,280.8984 Q503.7969,280.7891 504.0156,280.7891 Q504.3906,280.7891 504.625,281.0547 Q504.8594,281.3047 504.8594,281.9141 L504.8594,283.3672 Q504.8594,283.9766 504.625,284.2422 Q504.3906,284.5078 504.0156,284.5078 Q503.6719,284.5078 503.4688,284.3047 Q503.2656,284.1172 503.1563,283.6016 Q503.1094,283.2422 502.9219,283.0547 Q502.5938,282.6797 501.9844,282.4609 Q501.375,282.2422 500.75,282.2422 Q499.9844,282.2422 499.3438,282.5703 Q498.7188,282.8984 498.2188,283.6484 Q497.7344,284.3984 497.7344,285.4297 L497.7344,286.5234 Q497.7344,287.7578 498.625,288.5859 Q499.5156,289.3984 501.1094,289.3984 Q502.0469,289.3984 502.7031,289.1484 Q503.0938,288.9922 503.5156,288.5547 Q503.7813,288.2891 503.9219,288.2109 Q504.0781,288.1328 504.2813,288.1328 Q504.6094,288.1328 504.8594,288.3984 Q505.125,288.6484 505.125,288.9922 Q505.125,289.3359 504.7813,289.7422 Q504.2813,290.3203 503.4844,290.6484 Q502.4063,291.1016 501.1094,291.1016 Q499.5938,291.1016 498.3906,290.4766 Q497.4063,289.9766 496.7188,288.9141 Q496.0313,287.8359 496.0313,286.5547 L496.0313,285.3984 Q496.0313,284.0703 496.6406,282.9297 Q497.2656,281.7734 498.3594,281.1641 Q499.4531,280.5391 500.6875,280.5391 Q501.4219,280.5391 502.0625,280.7109 Q502.7188,280.8672 503.2656,281.2266 Z " fill="#000000"/><text fill="#000000" font-family="sans-serif" font-size="12" font-style="italic" lengthAdjust="spacing" textLength="85" x="512.5" y="281.457">&#171;Value Object&#187;</text><text fill="#000000" font-family="sans-serif" font-size="14" lengthAdjust="spacing" textLength="64" x="523" y="298.627">IATACode</text><line style="stroke:#181818;stroke-width:0.5;" x1="486.5" x2="597.5" y1="306.7031" y2="306.7031"/><text fill="#000000" font-family="sans-serif" font-size="14" lengthAdjust="spacing" textLength="85" x="491.5" y="325.2363">-code : String</text><line style="stroke:#181818;stroke-width:0.5;" x1="486.5" x2="597.5" y1="332.3125" y2="332.3125"/></g><!--class ModelDesignation--><g id="elem_ModelDesignation"><rect fill="#F1F1F1" height="48" id="ModelDesignation" rx="2.5" ry="2.5" style="stroke:#181818;stroke-width:0.5;" width="145" x="633.5" y="278"/><ellipse cx="648.5" cy="294" fill="#ADD1B2" rx="11" ry="11" style="stroke:#181818;stroke-width:1.0;"/><path d="M651.2656,289.875 Q651.4219,289.6563 651.6094,289.5469 Q651.7969,289.4375 652.0156,289.4375 Q652.3906,289.4375 652.625,289.7031 Q652.8594,289.9531 652.8594,290.5625 L652.8594,292.0156 Q652.8594,292.625 652.625,292.8906 Q652.3906,293.1563 652.0156,293.1563 Q651.6719,293.1563 651.4688,292.9531 Q651.2656,292.7656 651.1563,292.25 Q651.1094,291.8906 650.9219,291.7031 Q650.5938,291.3281 649.9844,291.1094 Q649.375,290.8906 648.75,290.8906 Q647.9844,290.8906 647.3438,291.2188 Q646.7188,291.5469 646.2188,292.2969 Q645.7344,293.0469 645.7344,294.0781 L645.7344,295.1719 Q645.7344,296.4063 646.625,297.2344 Q647.5156,298.0469 649.1094,298.0469 Q650.0469,298.0469 650.7031,297.7969 Q651.0938,297.6406 651.5156,297.2031 Q651.7813,296.9375 651.9219,296.8594 Q652.0781,296.7813 652.2813,296.7813 Q652.6094,296.7813 652.8594,297.0469 Q653.125,297.2969 653.125,297.6406 Q653.125,297.9844 652.7813,298.3906 Q652.2813,298.9688 651.4844,299.2969 Q650.4063,299.75 649.1094,299.75 Q647.5938,299.75 646.3906,299.125 Q645.4063,298.625 644.7188,297.5625 Q644.0313,296.4844 644.0313,295.2031 L644.0313,294.0469 Q644.0313,292.7188 644.6406,291.5781 Q645.2656,290.4219 646.3594,289.8125 Q647.4531,289.1875 648.6875,289.1875 Q649.4219,289.1875 650.0625,289.3594 Q650.7188,289.5156 651.2656,289.875 Z " fill="#000000"/><text fill="#000000" font-family="sans-serif" font-size="14" lengthAdjust="spacing" textLength="113" x="662.5" y="299.7285">ModelDesignation</text><line style="stroke:#181818;stroke-width:0.5;" x1="634.5" x2="777.5" y1="310" y2="310"/><line style="stroke:#181818;stroke-width:0.5;" x1="634.5" x2="777.5" y1="318" y2="318"/></g><!--class Aircraft--><g id="elem_Aircraft"><rect codeLine="18" fill="#F1F1F1" height="91.4063" id="Aircraft" rx="2.5" ry="2.5" style="stroke:#181818;stroke-width:0.5;" width="150" x="985" y="61"/><ellipse cx="1033.25" cy="89.8984" fill="#ADD1B2" rx="11" ry="11" style="stroke:#181818;stroke-width:1.0;"/><path d="M1036.0156,85.7734 Q1036.1719,85.5547 1036.3594,85.4453 Q1036.5469,85.3359 1036.7656,85.3359 Q1037.1406,85.3359 1037.375,85.6016 Q1037.6094,85.8516 1037.6094,86.4609 L1037.6094,87.9141 Q1037.6094,88.5234 1037.375,88.7891 Q1037.1406,89.0547 1036.7656,89.0547 Q1036.4219,89.0547 1036.2188,88.8516 Q1036.0156,88.6641 1035.9063,88.1484 Q1035.8594,87.7891 1035.6719,87.6016 Q1035.3438,87.2266 1034.7344,87.0078 Q1034.125,86.7891 1033.5,86.7891 Q1032.7344,86.7891 1032.0938,87.1172 Q1031.4688,87.4453 1030.9688,88.1953 Q1030.4844,88.9453 1030.4844,89.9766 L1030.4844,91.0703 Q1030.4844,92.3047 1031.375,93.1328 Q1032.2656,93.9453 1033.8594,93.9453 Q1034.7969,93.9453 1035.4531,93.6953 Q1035.8438,93.5391 1036.2656,93.1016 Q1036.5313,92.8359 1036.6719,92.7578 Q1036.8281,92.6797 1037.0313,92.6797 Q1037.3594,92.6797 1037.6094,92.9453 Q1037.875,93.1953 1037.875,93.5391 Q1037.875,93.8828 1037.5313,94.2891 Q1037.0313,94.8672 1036.2344,95.1953 Q1035.1563,95.6484 1033.8594,95.6484 Q1032.3438,95.6484 1031.1406,95.0234 Q1030.1563,94.5234 1029.4688,93.4609 Q1028.7813,92.3828 1028.7813,91.1016 L1028.7813,89.9453 Q1028.7813,88.6172 1029.3906,87.4766 Q1030.0156,86.3203 1031.1094,85.7109 Q1032.2031,85.0859 1033.4375,85.0859 Q1034.1719,85.0859 1034.8125,85.2578 Q1035.4688,85.4141 1036.0156,85.7734 Z " fill="#000000"/><text fill="#000000" font-family="sans-serif" font-size="12" font-style="italic" lengthAdjust="spacing" textLength="44" x="1054.25" y="78.457">&#171;Entity&#187;</text><text fill="#000000" font-family="sans-serif" font-size="12" font-style="italic" lengthAdjust="spacing" textLength="40" x="1056.25" y="93.5508">&#171;Root&#187;</text><text fill="#000000" font-family="sans-serif" font-size="14" lengthAdjust="spacing" textLength="45" x="1053.75" y="110.7207">Aircraft</text><line style="stroke:#181818;stroke-width:0.5;" x1="986" x2="1134" y1="118.7969" y2="118.7969"/><text fill="#000000" font-family="sans-serif" font-size="14" lengthAdjust="spacing" textLength="138" x="991" y="137.3301">-model : AircraftModel</text><line style="stroke:#181818;stroke-width:0.5;" x1="986" x2="1134" y1="144.4063" y2="144.4063"/></g><!--class AircraftModel--><g id="elem_AircraftModel"><rect codeLine="21" fill="#F1F1F1" height="76.3125" id="AircraftModel" rx="2.5" ry="2.5" style="stroke:#181818;stroke-width:0.5;" width="215" x="936.5" y="264"/><ellipse cx="998.25" cy="285.3516" fill="#ADD1B2" rx="11" ry="11" style="stroke:#181818;stroke-width:1.0;"/><path d="M1001.0156,281.2266 Q1001.1719,281.0078 1001.3594,280.8984 Q1001.5469,280.7891 1001.7656,280.7891 Q1002.1406,280.7891 1002.375,281.0547 Q1002.6094,281.3047 1002.6094,281.9141 L1002.6094,283.3672 Q1002.6094,283.9766 1002.375,284.2422 Q1002.1406,284.5078 1001.7656,284.5078 Q1001.4219,284.5078 1001.2188,284.3047 Q1001.0156,284.1172 1000.9063,283.6016 Q1000.8594,283.2422 1000.6719,283.0547 Q1000.3438,282.6797 999.7344,282.4609 Q999.125,282.2422 998.5,282.2422 Q997.7344,282.2422 997.0938,282.5703 Q996.4688,282.8984 995.9688,283.6484 Q995.4844,284.3984 995.4844,285.4297 L995.4844,286.5234 Q995.4844,287.7578 996.375,288.5859 Q997.2656,289.3984 998.8594,289.3984 Q999.7969,289.3984 1000.4531,289.1484 Q1000.8438,288.9922 1001.2656,288.5547 Q1001.5313,288.2891 1001.6719,288.2109 Q1001.8281,288.1328 1002.0313,288.1328 Q1002.3594,288.1328 1002.6094,288.3984 Q1002.875,288.6484 1002.875,288.9922 Q1002.875,289.3359 1002.5313,289.7422 Q1002.0313,290.3203 1001.2344,290.6484 Q1000.1563,291.1016 998.8594,291.1016 Q997.3438,291.1016 996.1406,290.4766 Q995.1563,289.9766 994.4688,288.9141 Q993.7813,287.8359 993.7813,286.5547 L993.7813,285.3984 Q993.7813,284.0703 994.3906,282.9297 Q995.0156,281.7734 996.1094,281.1641 Q997.2031,280.5391 998.4375,280.5391 Q999.1719,280.5391 999.8125,280.7109 Q1000.4688,280.8672 1001.0156,281.2266 Z " fill="#000000"/><text fill="#000000" font-family="sans-serif" font-size="12" font-style="italic" lengthAdjust="spacing" textLength="44" x="1038.25" y="281.457">&#171;Entity&#187;</text><text fill="#000000" font-family="sans-serif" font-size="14" lengthAdjust="spacing" textLength="83" x="1018.75" y="298.627">AircraftModel</text><line style="stroke:#181818;stroke-width:0.5;" x1="937.5" x2="1150.5" y1="306.7031" y2="306.7031"/><text fill="#000000" font-family="sans-serif" font-size="14" lengthAdjust="spacing" textLength="203" x="942.5" y="325.2363">-designation : ModelDesignation</text><line style="stroke:#181818;stroke-width:0.5;" x1="937.5" x2="1150.5" y1="332.3125" y2="332.3125"/></g><!--class ModelDesignation--><g id="elem_ModelDesignation"><rect codeLine="24" fill="#F1F1F1" height="93.9219" id="ModelDesignation" rx="2.5" ry="2.5" style="stroke:#181818;stroke-width:0.5;" width="152" x="968" y="403"/><ellipse cx="986.15" cy="424.3516" fill="#ADD1B2" rx="11" ry="11" style="stroke:#181818;stroke-width:1.0;"/><path d="M988.9156,420.2266 Q989.0719,420.0078 989.2594,419.8984 Q989.4469,419.7891 989.6656,419.7891 Q990.0406,419.7891 990.275,420.0547 Q990.5094,420.3047 990.5094,420.9141 L990.5094,422.3672 Q990.5094,422.9766 990.275,423.2422 Q990.0406,423.5078 989.6656,423.5078 Q989.3219,423.5078 989.1188,423.3047 Q988.9156,423.1172 988.8063,422.6016 Q988.7594,422.2422 988.5719,422.0547 Q988.2438,421.6797 987.6344,421.4609 Q987.025,421.2422 986.4,421.2422 Q985.6344,421.2422 984.9938,421.5703 Q984.3688,421.8984 983.8688,422.6484 Q983.3844,423.3984 983.3844,424.4297 L983.3844,425.5234 Q983.3844,426.7578 984.275,427.5859 Q985.1656,428.3984 986.7594,428.3984 Q987.6969,428.3984 988.3531,428.1484 Q988.7438,427.9922 989.1656,427.5547 Q989.4313,427.2891 989.5719,427.2109 Q989.7281,427.1328 989.9313,427.1328 Q990.2594,427.1328 990.5094,427.3984 Q990.775,427.6484 990.775,427.9922 Q990.775,428.3359 990.4313,428.7422 Q989.9313,429.3203 989.1344,429.6484 Q988.0563,430.1016 986.7594,430.1016 Q985.2438,430.1016 984.0406,429.4766 Q983.0563,428.9766 982.3688,427.9141 Q981.6813,426.8359 981.6813,425.5547 L981.6813,424.3984 Q981.6813,423.0703 982.2906,421.9297 Q982.9156,420.7734 984.0094,420.1641 Q985.1031,419.5391 986.3375,419.5391 Q987.0719,419.5391 987.7125,419.7109 Q988.3688,419.8672 988.9156,420.2266 Z " fill="#000000"/><text fill="#000000" font-family="sans-serif" font-size="12" font-style="italic" lengthAdjust="spacing" textLength="85" x="1014.85" y="420.457">&#171;Value Object&#187;</text><text fill="#000000" font-family="sans-serif" font-size="14" lengthAdjust="spacing" textLength="113" x="1000.85" y="437.627">ModelDesignation</text><line style="stroke:#181818;stroke-width:0.5;" x1="969" x2="1119" y1="445.7031" y2="445.7031"/><text fill="#000000" font-family="sans-serif" font-size="14" lengthAdjust="spacing" textLength="138" x="974" y="464.2363">-manufacturer : String</text><text fill="#000000" font-family="sans-serif" font-size="14" lengthAdjust="spacing" textLength="140" x="974" y="481.8457">-modelName    : String</text><line style="stroke:#181818;stroke-width:0.5;" x1="969" x2="1119" y1="488.9219" y2="488.9219"/></g><g id="elem_N1"><path d="M6,60.5 L6,152.2578 L394,152.2578 L394,70.5 L384,60.5 L6,60.5 " fill="#FEFFDD" style="stroke:#181818;stroke-width:0.5;"/><path d="M384,60.5 L384,70.5 L394,70.5 L384,60.5 " fill="#FEFFDD" style="stroke:#181818;stroke-width:1.0;"/><text fill="#000000" font-family="sans-serif" font-size="13" font-weight="bold" lengthAdjust="spacing" textLength="240" x="12" y="78.9951">Cross-aggregate reference rule (DDD):</text><text fill="#000000" font-family="sans-serif" font-size="13" lengthAdjust="spacing" textLength="78" x="12" y="95.3467">Airport stores</text><text fill="#000000" font-family="sans-serif" font-size="13" font-style="italic" lengthAdjust="spacing" textLength="102" x="94" y="95.3467">ModelDesignation</text><text fill="#000000" font-family="sans-serif" font-size="13" lengthAdjust="spacing" textLength="126" x="200" y="95.3467">(identity value object),</text><text fill="#000000" font-family="sans-serif" font-size="13" lengthAdjust="spacing" textLength="279" x="12" y="111.6982">not a direct reference to the AircraftModel entity.</text><text fill="#000000" font-family="sans-serif" font-size="13" lengthAdjust="spacing" textLength="271" x="12" y="128.0498">Existence of the AircraftModel is verified by the</text><text fill="#000000" font-family="sans-serif" font-size="13" lengthAdjust="spacing" textLength="367" x="12" y="144.4014">AddAirportCertificationUseCase before modifying the aggregate.</text></g><!--reverse link Airport to IATACode--><g id="link_Airport_IATACode"><path codeLine="13" d="M597.8383,180.9402 C583.4583,211.8502 571.66,237.24 559.32,263.75 " fill="none" id="Airport-backto-IATACode" style="stroke:#181818;stroke-width:1.0;"/><polygon fill="#181818" points="602.9,170.06,596.7424,173.8129,597.8383,180.9402,603.9959,177.1873,602.9,170.06" style="stroke:#181818;stroke-width:1.0;"/></g><!--reverse link Airport to ModelDesignation--><g id="link_Airport_ModelDesignation"><path codeLine="14" d="M625.3869,182.0999 C625.4869,203.1799 628.22,214.33 637,234 C644.69,251.23 659.04,266.3 672.66,277.77 " fill="none" id="Airport-backto-ModelDesignation" style="stroke:#181818;stroke-width:1.0;"/><polygon fill="#181818" points="625.33,170.1,621.3585,176.1189,625.3869,182.0999,629.3584,176.081,625.33,170.1" style="stroke:#181818;stroke-width:1.0;"/><text fill="#000000" font-family="sans-serif" font-size="13" lengthAdjust="spacing" textLength="20" x="641.5541" y="267.0512">0..*</text></g><!--reverse link Aircraft to AircraftModel--><g id="link_Aircraft_AircraftModel"><path codeLine="28" d="M1055.3002,164.3391 C1052.5002,198.1691 1049.7,232.05 1047.07,263.83 " fill="none" id="Aircraft-backto-AircraftModel" style="stroke:#181818;stroke-width:1.0;"/><polygon fill="#181818" points="1056.29,152.38,1051.8087,158.0296,1055.3002,164.3391,1059.7815,158.6895,1056.29,152.38" style="stroke:#181818;stroke-width:1.0;"/></g><!--reverse link AircraftModel to ModelDesignation--><g id="link_AircraftModel_ModelDesignation"><path codeLine="29" d="M1044,352.22 C1044,371.31 1044,382.75 1044,402.97 " fill="none" id="AircraftModel-backto-ModelDesignation" style="stroke:#181818;stroke-width:1.0;"/><polygon fill="#181818" points="1044,340.22,1040,346.22,1044,352.22,1048,346.22,1044,340.22" style="stroke:#181818;stroke-width:1.0;"/></g><!--link Airport to AircraftModel--><g id="link_Airport_AircraftModel"><path codeLine="32" d="M631.68,170.08 C634.84,193.18 642.63,217.67 660,234 C691.31,263.42 808.67,256.62 851,264 C878.73,268.83 902.7366,273.2739 930.5266,278.5839 " fill="none" id="Airport-to-AircraftModel" style="stroke:#181818;stroke-width:1.0;stroke-dasharray:7.0,7.0;"/><polygon fill="#181818" points="936.42,279.71,928.3307,274.092,931.5088,278.7716,926.8292,281.9498,936.42,279.71" style="stroke:#181818;stroke-width:1.0;"/><polygon fill="#000000" points="822.1998,210.8822,814.7008,205.0328,812.6948,210.5578,822.1998,210.8822" style="stroke:#000000;stroke-width:1.0;"/><text fill="#000000" font-family="sans-serif" font-size="13" lengthAdjust="spacing" textLength="63" x="825.5" y="214.4951">certified for</text><text fill="#000000" font-family="sans-serif" font-size="13" lengthAdjust="spacing" textLength="379" x="661" y="230.8467">(by ModelDesignation identity only &#226;&#8364;&#8221; cross-aggregate reference)</text></g><!--SRC=[XPI_Rjim4CPtFSN1avtMIheQWW31pf2XAL2tdRfGv4bX8vC6IHbLYm15twDBvxv5toHFaYCLkVhZk9oautV7xtudojvBjMU6xM3F-3qhSUkQ2i4WTqoL5KRsAE0LipPppiYyTdZ3jThARmXNKVIS2hDCchqs3hAoD5WoXpFu7W6ja0lTTf9SAoTTawRq-5vhHm-jpgybIEROMWli8YkuoJvaFj8JSJHE5XB5MufNbaHRT4busQ2LfM9EQfKUCru14sBT9l6mDz-Dn5HZdB-Ws45B4Seyz7hf7547drXL8xpBln2qKIVSAyWPGLDbhqP7ucAv7FRMtvXTnV75R68fUXWIvuOLvv2t-_zZ7bYGrIuXd3hfUh3Rhzal9SuIdTGS2yuJtJ5L5uoxsg0PaktrSSjss7uufyYtGCBocAST3xlqcbCpw4OLn-aeO_NluuH26qW_gtdUJ1kL0WC_qAfguE_lnvz_7d_y0cwqjKlM3PGkOu465ST552bD0MRXzWqvJV9q_P8MJ4ttUBxPR1Qhv3Btzw0pR9qsQ26HwTXHSYbJc1zj7S8OT1Z3uZLLeDE1WP3-zz0xocbmTpY2qDQ8AUlwgxGk27LnGYWj7D2qj8WI2RnN8Pxj3gxiHujhPX5o9AxeXosBXWOSoXufn14guSrYz0G0]--></g></svg>