<?xml version="1.0" encoding="us-ascii" standalone="no"?><svg xmlns="http://www.w3.org/2000/svg" xmlns:xlink="http://www.w3.org/1999/xlink" contentStyleType="text/css" height="245px" preserveAspectRatio="none" style="width:446px;height:245px;background:#FFFFFF;" version="1.1" viewBox="0 0 446 245" width="446px" zoomAndPan="magnify"><defs/><g><rect fill="#FFFFFF" height="52.7031" style="stroke:#181818;stroke-width:1.0;" width="10" x="22" y="92.6094"/><rect fill="#FFFFFF" height="30.3516" style="stroke:#181818;stroke-width:1.0;" width="10" x="405" y="114.9609"/><line style="stroke:#181818;stroke-width:0.5;stroke-dasharray:5.0,5.0;" x1="27" x2="27" y1="82.6094" y2="163.3125"/><line style="stroke:#181818;stroke-width:0.5;stroke-dasharray:5.0,5.0;" x1="410" x2="410" y1="82.6094" y2="163.3125"/><text fill="#000000" font-family="sans-serif" font-size="14" lengthAdjust="spacing" textLength="38" x="5" y="79.5332">ATCC</text><ellipse cx="27" cy="13.5" fill="#E2E2F0" rx="8" ry="8" style="stroke:#181818;stroke-width:0.5;"/><path d="M27,21.5 L27,48.5 M14,29.5 L40,29.5 M27,48.5 L14,63.5 M27,48.5 L40,63.5 " fill="none" style="stroke:#181818;stroke-width:0.5;"/><text fill="#000000" font-family="sans-serif" font-size="14" lengthAdjust="spacing" textLength="38" x="5" y="176.8457">ATCC</text><ellipse cx="27" cy="188.4219" fill="#E2E2F0" rx="8" ry="8" style="stroke:#181818;stroke-width:0.5;"/><path d="M27,196.4219 L27,223.4219 M14,204.4219 L40,204.4219 M27,223.4219 L14,238.4219 M27,223.4219 L40,238.4219 " fill="none" style="stroke:#181818;stroke-width:0.5;"/><rect fill="#E2E2F0" height="31.6094" rx="2.5" ry="2.5" style="stroke:#181818;stroke-width:0.5;" width="60" x="380" y="50"/><text fill="#000000" font-family="sans-serif" font-size="14" lengthAdjust="spacing" textLength="46" x="387" y="71.5332">System</text><rect fill="#E2E2F0" height="31.6094" rx="2.5" ry="2.5" style="stroke:#181818;stroke-width:0.5;" width="60" x="380" y="162.3125"/><text fill="#000000" font-family="sans-serif" font-size="14" lengthAdjust="spacing" textLength="46" x="387" y="183.8457">System</text><rect fill="#FFFFFF" height="52.7031" style="stroke:#181818;stroke-width:1.0;" width="10" x="22" y="92.6094"/><rect fill="#FFFFFF" height="30.3516" style="stroke:#181818;stroke-width:1.0;" width="10" x="405" y="114.9609"/><polygon fill="#181818" points="393,110.9609,403,114.9609,393,118.9609,397,114.9609" style="stroke:#181818;stroke-width:1.0;"/><line style="stroke:#181818;stroke-width:1.0;" x1="32" x2="399" y1="114.9609" y2="114.9609"/><text fill="#000000" font-family="sans-serif" font-size="13" font-weight="bold" lengthAdjust="spacing" textLength="7" x="39" y="110.1045">1</text><text fill="#000000" font-family="sans-serif" font-size="13" lengthAdjust="spacing" textLength="113" x="50" y="110.1045">GET /api/routes/{id}</text><polygon fill="#181818" points="38,141.3125,28,145.3125,38,149.3125,34,145.3125" style="stroke:#181818;stroke-width:1.0;"/><line style="stroke:#181818;stroke-width:1.0;stroke-dasharray:2.0,2.0;" x1="32" x2="409" y1="145.3125" y2="145.3125"/><text fill="#000000" font-family="sans-serif" font-size="13" font-weight="bold" lengthAdjust="spacing" textLength="7" x="44" y="140.4561">2</text><text fill="#000000" font-family="sans-serif" font-size="13" lengthAdjust="spacing" textLength="338" x="55" y="140.4561">200 OK (Route Details: Origin, Destination, Distance, etc.)</text><!--SRC=[LOmz2y9038Rt-nMXaq9hYsC7GQeuE1Hi5yTu3HAmT-Kk5KJyxpPrK9UGz-DvSHJlnlv2mQ0L7o3PjbML04RGnmmOX2qFw0IIvX65-ZbiperHWkyezAdgWMoZ4PHmsBUGuy1vyADGp9_SlRx0Z6incu0PB65T550VON5I07OaoBTOGXtuoYwTZ2ZiKDYhu2ZeBAL0ObTBqz7Vz8_KyJS0]--></g></svg>