<?xml version="1.0" encoding="us-ascii" standalone="no"?><svg xmlns="http://www.w3.org/2000/svg" xmlns:xlink="http://www.w3.org/1999/xlink" contentStyleType="text/css" height="660px" preserveAspectRatio="none" style="width:1065px;height:660px;background:#FFFFFF;" version="1.1" viewBox="0 0 1065 660" width="1065px" zoomAndPan="magnify"><defs/><g><rect fill="#FFFFFF" height="83.0547" style="stroke:#181818;stroke-width:1.0;" width="10" x="305" y="131.3125"/><rect fill="#FFFFFF" height="354.0547" style="stroke:#181818;stroke-width:1.0;" width="10" x="515" y="214.3672"/><rect fill="#FFFFFF" height="245.6484" style="stroke:#181818;stroke-width:1.0;" width="10" x="747" y="244.7188"/><rect fill="#FFFFFF" height="30.3516" style="stroke:#181818;stroke-width:1.0;" width="10" x="924" y="311.4219"/><rect fill="none" height="204.6484" style="stroke:#000000;stroke-width:1.5;" width="857" x="10" y="356.7734"/><line style="stroke:#181818;stroke-width:0.5;stroke-dasharray:5.0,5.0;" x1="111" x2="111" y1="82.6094" y2="578.4219"/><line style="stroke:#181818;stroke-width:0.5;stroke-dasharray:5.0,5.0;" x1="309.5" x2="309.5" y1="82.6094" y2="578.4219"/><line style="stroke:#181818;stroke-width:0.5;stroke-dasharray:5.0,5.0;" x1="520" x2="520" y1="82.6094" y2="578.4219"/><line style="stroke:#181818;stroke-width:0.5;stroke-dasharray:5.0,5.0;" x1="752" x2="752" y1="82.6094" y2="578.4219"/><line style="stroke:#181818;stroke-width:0.5;stroke-dasharray:5.0,5.0;" x1="929" x2="929" y1="82.6094" y2="578.4219"/><text fill="#000000" font-family="sans-serif" font-size="14" lengthAdjust="spacing" textLength="176" x="20" y="79.5332">Backoffice Operator / ATCC</text><ellipse cx="111" cy="13.5" fill="#E2E2F0" rx="8" ry="8" style="stroke:#181818;stroke-width:0.5;"/><path d="M111,21.5 L111,48.5 M98,29.5 L124,29.5 M111,48.5 L98,63.5 M111,48.5 L124,63.5 " fill="none" style="stroke:#181818;stroke-width:0.5;"/><text fill="#000000" font-family="sans-serif" font-size="14" lengthAdjust="spacing" textLength="176" x="20" y="591.9551">Backoffice Operator / ATCC</text><ellipse cx="111" cy="603.5313" fill="#E2E2F0" rx="8" ry="8" style="stroke:#181818;stroke-width:0.5;"/><path d="M111,611.5313 L111,638.5313 M98,619.5313 L124,619.5313 M111,638.5313 L98,653.5313 M111,638.5313 L124,653.5313 " fill="none" style="stroke:#181818;stroke-width:0.5;"/><rect fill="#E2E2F0" height="49.2188" rx="2.5" ry="2.5" style="stroke:#181818;stroke-width:0.5;" width="155" x="232.5" y="32.3906"/><text fill="#000000" font-family="sans-serif" font-size="14" lengthAdjust="spacing" textLength="43" x="288.5" y="53.9238">&#171;filter&#187;</text><text fill="#000000" font-family="sans-serif" font-size="14" lengthAdjust="spacing" textLength="141" x="239.5" y="71.5332">JwtAuthenticationFilter</text><rect fill="#E2E2F0" height="49.2188" rx="2.5" ry="2.5" style="stroke:#181818;stroke-width:0.5;" width="155" x="232.5" y="577.4219"/><text fill="#000000" font-family="sans-serif" font-size="14" lengthAdjust="spacing" textLength="43" x="288.5" y="598.9551">&#171;filter&#187;</text><text fill="#000000" font-family="sans-serif" font-size="14" lengthAdjust="spacing" textLength="141" x="239.5" y="616.5645">JwtAuthenticationFilter</text><rect fill="#E2E2F0" height="31.6094" rx="2.5" ry="2.5" style="stroke:#181818;stroke-width:0.5;" width="118" x="461" y="50"/><text fill="#000000" font-family="sans-serif" font-size="14" lengthAdjust="spacing" textLength="104" x="468" y="71.5332">AirportController</text><rect fill="#E2E2F0" height="31.6094" rx="2.5" ry="2.5" style="stroke:#181818;stroke-width:0.5;" width="118" x="461" y="577.4219"/><text fill="#000000" font-family="sans-serif" font-size="14" lengthAdjust="spacing" textLength="104" x="468" y="598.9551">AirportController</text><rect fill="#E2E2F0" height="31.6094" rx="2.5" ry="2.5" style="stroke:#181818;stroke-width:0.5;" width="210" x="647" y="50"/><text fill="#000000" font-family="sans-serif" font-size="14" lengthAdjust="spacing" textLength="196" x="654" y="71.5332">ViewAirportDetailsUseCaseImpl</text><rect fill="#E2E2F0" height="31.6094" rx="2.5" ry="2.5" style="stroke:#181818;stroke-width:0.5;" width="210" x="647" y="577.4219"/><text fill="#000000" font-family="sans-serif" font-size="14" lengthAdjust="spacing" textLength="196" x="654" y="598.9551">ViewAirportDetailsUseCaseImpl</text><rect fill="#E2E2F0" height="31.6094" rx="2.5" ry="2.5" style="stroke:#181818;stroke-width:0.5;" width="124" x="867" y="50"/><text fill="#000000" font-family="sans-serif" font-size="14" lengthAdjust="spacing" textLength="110" x="874" y="71.5332">AirportRepository</text><rect fill="#E2E2F0" height="31.6094" rx="2.5" ry="2.5" style="stroke:#181818;stroke-width:0.5;" width="124" x="867" y="577.4219"/><text fill="#000000" font-family="sans-serif" font-size="14" lengthAdjust="spacing" textLength="110" x="874" y="598.9551">AirportRepository</text><rect fill="#FFFFFF" height="83.0547" style="stroke:#181818;stroke-width:1.0;" width="10" x="305" y="131.3125"/><rect fill="#FFFFFF" height="354.0547" style="stroke:#181818;stroke-width:1.0;" width="10" x="515" y="214.3672"/><rect fill="#FFFFFF" height="245.6484" style="stroke:#181818;stroke-width:1.0;" width="10" x="747" y="244.7188"/><rect fill="#FFFFFF" height="30.3516" style="stroke:#181818;stroke-width:1.0;" width="10" x="924" y="311.4219"/><polygon fill="#181818" points="293,127.3125,303,131.3125,293,135.3125,297,131.3125" style="stroke:#181818;stroke-width:1.0;"/><line style="stroke:#181818;stroke-width:1.0;" x1="111" x2="299" y1="131.3125" y2="131.3125"/><text fill="#000000" font-family="sans-serif" font-size="13" font-weight="bold" lengthAdjust="spacing" textLength="7" x="120.5" y="118.2803">1</text><text fill="#000000" font-family="sans-serif" font-size="13" lengthAdjust="spacing" textLength="140" x="143.5" y="110.1045">GET /airports/{iataCode}</text><text fill="#000000" font-family="sans-serif" font-size="13" lengthAdjust="spacing" textLength="164" x="131.5" y="126.4561">Accept: application/hal+json</text><path d="M320,144.3125 L320,186.3125 L709,186.3125 L709,154.3125 L699,144.3125 L320,144.3125 " fill="#FEFFDD" style="stroke:#181818;stroke-width:0.5;"/><path d="M699,144.3125 L699,154.3125 L709,154.3125 L699,144.3125 " fill="#FEFFDD" style="stroke:#181818;stroke-width:0.5;"/><text fill="#000000" font-family="sans-serif" font-size="13" lengthAdjust="spacing" textLength="187" x="326" y="162.8076">See security/SD-AuthFilter.puml</text><text fill="#000000" font-family="sans-serif" font-size="13" lengthAdjust="spacing" textLength="368" x="326" y="179.1592">Required role(s) for this US: BACKOFFICE_OPERATOR, ATCC</text><polygon fill="#181818" points="503,210.3672,513,214.3672,503,218.3672,507,214.3672" style="stroke:#181818;stroke-width:1.0;"/><line style="stroke:#181818;stroke-width:1.0;" x1="310" x2="509" y1="214.3672" y2="214.3672"/><text fill="#000000" font-family="sans-serif" font-size="13" font-weight="bold" lengthAdjust="spacing" textLength="7" x="322" y="209.5107">2</text><text fill="#000000" font-family="sans-serif" font-size="13" lengthAdjust="spacing" textLength="170" x="333" y="209.5107">forward authenticated request</text><polygon fill="#181818" points="735,240.7188,745,244.7188,735,248.7188,739,244.7188" style="stroke:#181818;stroke-width:1.0;"/><line style="stroke:#181818;stroke-width:1.0;" x1="525" x2="741" y1="244.7188" y2="244.7188"/><text fill="#000000" font-family="sans-serif" font-size="13" font-weight="bold" lengthAdjust="spacing" textLength="7" x="539.5" y="239.8623">3</text><text fill="#000000" font-family="sans-serif" font-size="13" lengthAdjust="spacing" textLength="182" x="550.5" y="239.8623">getAirportByIataCode(iataCode)</text><path d="M762,257.7188 L762,283.7188 L1058,283.7188 L1058,267.7188 L1048,257.7188 L762,257.7188 " fill="#FEFFDD" style="stroke:#181818;stroke-width:0.5;"/><path d="M1048,257.7188 L1048,267.7188 L1058,267.7188 L1048,257.7188 " fill="#FEFFDD" style="stroke:#181818;stroke-width:0.5;"/><text fill="#000000" font-family="sans-serif" font-size="13" lengthAdjust="spacing" textLength="275" x="768" y="276.2139">code = new IATACode(iataCode.toUpperCase())</text><polygon fill="#181818" points="912,307.4219,922,311.4219,912,315.4219,916,311.4219" style="stroke:#181818;stroke-width:1.0;"/><line style="stroke:#181818;stroke-width:1.0;" x1="757" x2="918" y1="311.4219" y2="311.4219"/><text fill="#000000" font-family="sans-serif" font-size="13" font-weight="bold" lengthAdjust="spacing" textLength="7" x="794" y="306.5654">4</text><text fill="#000000" font-family="sans-serif" font-size="13" lengthAdjust="spacing" textLength="82" x="805" y="306.5654">findById(code)</text><polygon fill="#181818" points="768,337.7734,758,341.7734,768,345.7734,764,341.7734" style="stroke:#181818;stroke-width:1.0;"/><line style="stroke:#181818;stroke-width:1.0;stroke-dasharray:2.0,2.0;" x1="762" x2="928" y1="341.7734" y2="341.7734"/><text fill="#000000" font-family="sans-serif" font-size="13" font-weight="bold" lengthAdjust="spacing" textLength="7" x="786.5" y="336.917">5</text><text fill="#000000" font-family="sans-serif" font-size="13" lengthAdjust="spacing" textLength="102" x="797.5" y="336.917">Optional&lt;Airport&gt;</text><path d="M10,356.7734 L71,356.7734 L71,365.125 L61,375.125 L10,375.125 L10,356.7734 " fill="#EEEEEE" style="stroke:#000000;stroke-width:1.5;"/><rect fill="none" height="204.6484" style="stroke:#000000;stroke-width:1.5;" width="857" x="10" y="356.7734"/><text fill="#000000" font-family="sans-serif" font-size="13" font-weight="bold" lengthAdjust="spacing" textLength="16" x="25" y="371.2686">alt</text><text fill="#000000" font-family="sans-serif" font-size="11" font-weight="bold" lengthAdjust="spacing" textLength="103" x="86" y="370.1924">[Airport not found]</text><polygon fill="#181818" points="536,393.4766,526,397.4766,536,401.4766,532,397.4766" style="stroke:#181818;stroke-width:1.0;"/><line style="stroke:#181818;stroke-width:1.0;stroke-dasharray:2.0,2.0;" x1="530" x2="746" y1="397.4766" y2="397.4766"/><text fill="#000000" font-family="sans-serif" font-size="13" font-weight="bold" lengthAdjust="spacing" textLength="7" x="537" y="392.6201">6</text><text fill="#000000" font-family="sans-serif" font-size="13" lengthAdjust="spacing" textLength="187" x="548" y="392.6201">throw AirportNotFoundException</text><polygon fill="#181818" points="122,440.1797,112,444.1797,122,448.1797,118,444.1797" style="stroke:#181818;stroke-width:1.0;"/><line style="stroke:#181818;stroke-width:1.0;stroke-dasharray:2.0,2.0;" x1="116" x2="514" y1="444.1797" y2="444.1797"/><text fill="#000000" font-family="sans-serif" font-size="13" font-weight="bold" lengthAdjust="spacing" textLength="7" x="259" y="431.1475">7</text><text fill="#000000" font-family="sans-serif" font-size="13" lengthAdjust="spacing" textLength="85" x="276" y="422.9717">404 Not Found</text><text fill="#000000" font-family="sans-serif" font-size="13" lengthAdjust="spacing" textLength="97" x="270" y="439.3232">{ ProblemDetail }</text><line style="stroke:#000000;stroke-width:1.0;stroke-dasharray:2.0,2.0;" x1="10" x2="867" y1="453.1797" y2="453.1797"/><text fill="#000000" font-family="sans-serif" font-size="11" font-weight="bold" lengthAdjust="spacing" textLength="82" x="15" y="464.5986">[Airport found]</text><polygon fill="#181818" points="536,486.3672,526,490.3672,536,494.3672,532,490.3672" style="stroke:#181818;stroke-width:1.0;"/><line style="stroke:#181818;stroke-width:1.0;stroke-dasharray:2.0,2.0;" x1="530" x2="751" y1="490.3672" y2="490.3672"/><text fill="#000000" font-family="sans-serif" font-size="13" font-weight="bold" lengthAdjust="spacing" textLength="7" x="614" y="485.5107">8</text><text fill="#000000" font-family="sans-serif" font-size="13" lengthAdjust="spacing" textLength="38" x="625" y="485.5107">Airport</text><polygon fill="#181818" points="122,549.4219,112,553.4219,122,557.4219,118,553.4219" style="stroke:#181818;stroke-width:1.0;"/><line style="stroke:#181818;stroke-width:1.0;stroke-dasharray:2.0,2.0;" x1="116" x2="514" y1="553.4219" y2="553.4219"/><text fill="#000000" font-family="sans-serif" font-size="13" font-weight="bold" lengthAdjust="spacing" textLength="7" x="131" y="532.2139">9</text><text fill="#000000" font-family="sans-serif" font-size="13" lengthAdjust="spacing" textLength="44" x="296.5" y="515.8623">200 OK</text><text fill="#000000" font-family="sans-serif" font-size="13" lengthAdjust="spacing" textLength="353" x="142" y="532.2139">{ "iataCode": "LIS", "name": "...", "status": "OPERATIONAL",</text><text fill="#000000" font-family="sans-serif" font-size="13" lengthAdjust="spacing" textLength="307" x="169" y="548.5654">"runways": [...], "certifiedModels": [...], "_links": {...} }</text><!--SRC=[ZLFBRjim4BphAnOwsMZyG96JqGPG5Bjmyr1WExtKHS1GQvirJQeaLSS8yaNzXDxoPLtAL2m7HT6RTZcxEpExickX2cRO1Yp-A55nl4PhsH8JAPOAE2g79eeOTzf0VCxuMYyMWYDa1Hhcapr8PcaQ0xEGU5H4xPpWec3AGVpoQo4ajNZvFLUVjouftOfQ2iwSq6fKFLMb-y_ZsaIOGXkNQkMCbZ8W3-4n-el0RQYuGCU4j7SMKsPnl2baLHdYlmwPOA6j8Fgx2kf3KbqwhShDWtUWqWQTiy0K1l1fE8CUsvVRtfDWZgKwn-UvIZZ7mWs05OKCKdih9jzzjrfvAyLFvh2M72bDWH7BbGEzgBC0KqJQ2I-DSBlUzABZhTi_Tejo8maneOq9WpcG7TYoRLWGGxSIf7GwWFCalSn6et4wlCzkXvDabarEgbL5g7BmGwCeQ25L1rT96VNPCfC3EspBJ_47ObsKuri9ht5ZDr6Z8_KFtbFp9RhW-Vbk73nhrUQr3xtgRRtnfqu3SCB3Hr2uXN4oIuxwT9s-A-X2FRJLRZSarqI8ar-oLojKJbJo5ZycKDr0XUaS2SWAlr0cFmGPPqr7mk581-7LZoL3IvKJPNXjqtdhkLiPlQsBRhGR-PBXepyacbRLDXsbylr53k2qVmfK05N5N3t1hT4F4ZVxlm2U8vGqiARp7rG2j08rfBqkv1zStlVxa5rw4d6zYdW0yTLu6fz0hDYc2hlThW-jOwwqFh4_q75sarp59tC549jIRTdEFtubz3T2SwI_TY4mlwQcilboBuLQ-yGJ9PwzO5BONCg1x1y0]--></g></svg>